<?xml version="1.0" encoding="utf-8"?>
<!-- Generator: Adobe Illustrator 22.1.0, SVG Export Plug-In . SVG Version: 6.00 Build 0)  -->
<svg version="1.1" id="logo3" xmlns="http://www.w3.org/2000/svg" xmlns:xlink="http://www.w3.org/1999/xlink" x="0px" y="0px"
	 viewBox="0 0 650 650" style="enable-background:new 0 0 650 650;" xml:space="preserve">
<style type="text/css">
	.st0{fill:#262118;}
	.st1{fill:none;stroke:#8E631C;stroke-width:2;stroke-miterlimit:10;}
	.st2{fill:none;stroke:#FFFFFF;stroke-miterlimit:10;}
	.st3{fill:none;stroke:#8E631C;stroke-miterlimit:10;}
	.st4{fill:none;stroke:#AA8A49;stroke-width:1.1903;stroke-miterlimit:10;}
	.st5{fill:#AA8846;}
	.st6{fill:none;stroke:#AA8A49;stroke-miterlimit:10;}
	.st7{fill:none;stroke:#AA8A49;stroke-width:2;stroke-miterlimit:10;}
	.st8{fill:#FFFFFF;}
	.st9{fill:none;stroke:#F5F5F5;stroke-miterlimit:10;}
	.st10{fill:#AA8A49;}
</style>
<g>
	<path class="st8" d="M200.2,650c-18.7,0-36.7-1.9-53.8-5.7c-36.4-8.1-67.2-24.6-91.6-49c-24.4-24.4-40.9-55.2-49-91.6
		c-7.9-35.1-7.6-73.9,0.6-115.3c17-85,66.1-171.6,138.2-243.7C216.7,72.4,303.3,23.4,388.3,6.4c41.4-8.3,80.2-8.5,115.3-0.6
		c36.4,8.1,67.2,24.6,91.6,49c24.4,24.4,40.9,55.2,49,91.6c7.9,35.1,7.6,73.9-0.6,115.3c-17,85-66.1,171.6-138.2,243.7
		c-72.1,72.1-158.7,121.2-243.7,138.2C240.5,647.9,219.9,650,200.2,650z M450.2,2c-19.6,0-40.2,2.1-61.5,6.4
		C304,25.2,217.8,74.1,146,146C74.1,217.8,25.2,304,8.3,388.7C-8.6,473.2,8.4,546,56.2,593.8c47.8,47.8,120.6,64.8,205.1,47.9
		C346,624.8,432.2,575.9,504,504c71.9-71.9,120.7-158,137.7-242.7c16.9-84.5-0.1-157.4-47.9-205.1C558.1,20.5,508.3,2,450.2,2z"/>
	<path class="st8" d="M200.2,650c-18.7,0-36.7-1.9-53.8-5.7c-36.4-8.1-67.2-24.6-91.6-49l1.4-1.4c47.8,47.8,120.6,64.8,205.1,47.9
		C346,624.8,432.2,575.9,504,504l1.4,1.4c-72.1,72.1-158.7,121.2-243.7,138.2C240.5,647.9,219.9,650,200.2,650z"/>
</g>
</svg>
