<?xml version="1.0" encoding="utf-8"?>
<!-- Generator: Adobe Illustrator 22.1.0, SVG Export Plug-In . SVG Version: 6.00 Build 0)  -->
<svg version="1.1" id="logo3" xmlns="http://www.w3.org/2000/svg" xmlns:xlink="http://www.w3.org/1999/xlink" x="0px" y="0px"
	 viewBox="0 0 655 655" style="enable-background:new 0 0 655 655;" xml:space="preserve">
<style type="text/css">
	.st0{fill:#262118;}
	.st1{fill:none;stroke:#8E631C;stroke-width:2;stroke-miterlimit:10;}
	.st2{fill:none;stroke:#FFFFFF;stroke-miterlimit:10;}
	.st3{fill:none;stroke:#8E631C;stroke-miterlimit:10;}
	.st4{fill:#FFFFFF;}
	.st5{fill:none;stroke:#AA8A49;stroke-width:1.1903;stroke-miterlimit:10;}
	.st6{fill:#AA8846;}
	.st7{fill:none;stroke:#AA8A49;stroke-miterlimit:10;}
	.st8{fill:#AA8A49;}
	.st9{fill:none;stroke:#AA8A49;stroke-width:2;stroke-miterlimit:10;}
	.st10{fill:none;stroke:#F5F5F5;stroke-miterlimit:10;}
	.st11{fill:#685630;}
</style>
<g>
	<path class="st8" d="M202.3,653.5c-18.8,0-36.8-1.9-54-5.8c-36.5-8.2-67.4-24.7-91.9-49.2s-41-55.4-49.2-91.9
		c-7.9-35.2-7.7-74.1,0.6-115.7c17.1-85.3,66.3-172.1,138.6-244.5S305.7,24.9,391,7.9c41.5-8.3,80.4-8.5,115.7-0.6
		c36.5,8.2,67.4,24.7,91.9,49.2s41,55.4,49.2,91.9c7.9,35.2,7.7,74.1-0.6,115.7c-17.1,85.3-66.3,172.1-138.6,244.5
		S349.3,630.1,264,647.1C242.7,651.4,222.1,653.5,202.3,653.5z M453.1,3.4c-19.7,0-40.3,2.1-61.7,6.4c-84.9,17-171.4,66-243.5,138.1
		S26.8,306.5,9.8,391.4c-16.9,84.8,0.1,157.9,48,205.8c47.9,47.9,121,65,205.8,48c84.9-17,171.4-66,243.5-138.1
		s121.1-158.5,138.1-243.5c16.9-84.8-0.1-157.9-48-205.8C561.3,22,511.4,3.4,453.1,3.4z"/>
	<path class="st8" d="M202.3,653.5c-18.8,0-36.8-1.9-54-5.8c-36.5-8.2-67.4-24.7-91.9-49.2l1.4-1.4c47.9,47.9,121,65,205.8,48
		c84.9-17,171.4-66,243.5-138.1l1.4,1.4C436.1,580.9,349.3,630.1,264,647.1C242.7,651.4,222.1,653.5,202.3,653.5z"/>
</g>
</svg>
