<?xml version="1.0" encoding="utf-8"?>
<!-- Generator: Adobe Illustrator 22.1.0, SVG Export Plug-In . SVG Version: 6.00 Build 0)  -->
<svg version="1.1" id="圖層_1" xmlns="http://www.w3.org/2000/svg" xmlns:xlink="http://www.w3.org/1999/xlink" x="0px" y="0px"
	 viewBox="0 0 70 110" style="enable-background:new 0 0 70 110;" xml:space="preserve">
<style type="text/css">
	.st0{fill:#262118;}
	.st1{fill:#AA8846;}
</style>
<g>
	<g>
		<path class="st1" d="M66.8,30.7c-0.8-1-1.7-1.8-2.7-2.5l0,0l0,0c0.5-1.1,0.9-2.3,1.2-3.5c0.3-1.8,0.3-3.6-0.1-5.4
			c-0.5-2.2-1.5-4.4-3-6.1c-1.5-1.8-3.4-3.2-5.4-4.1c-1.7-0.7-3.5-1.1-5.3-1.1c-1.4,0-2.6,0.2-3.7,0.5c0,0,0,0,0,0
			c-0.5-1.1-1.2-2.2-2-3.1c-1.1-1.4-2.6-2.5-4.2-3.3c-4-2.1-9.2-2.1-13.3,0c-1.6,0.8-3.1,2-4.2,3.3c-0.8,1-1.5,2-2,3.1l0,0
			c0,0,0,0,0,0c-1.1-0.3-2.3-0.4-3.7-0.5c-1.8,0-3.6,0.4-5.3,1.1c-2.1,0.9-4,2.3-5.4,4.1c-1.5,1.8-2.5,3.9-3,6.1
			c-0.4,1.8-0.4,3.6-0.1,5.4c0.2,1.2,0.6,2.4,1.2,3.5l0,0l0,0c-1,0.7-1.9,1.5-2.7,2.5c-1.1,1.4-2,3-2.5,4.8C0.1,37.7,0,40,0.5,42.3
			c0.4,2.3,1.4,4.4,2.9,6.2c1.1,1.4,2.5,2.6,4.1,3.5c1.1,0.6,2.3,1.1,3.4,1.3l0,0c-0.1,1.2,0,2.4,0.3,3.7c0.4,1.7,1.1,3.4,2.1,4.9
			c1.3,1.9,3,3.5,5.1,4.6c2,1.1,4.3,1.7,6.6,1.7c1.9,0,3.7-0.3,5.3-1c1.2-0.5,2.2-1.1,3.2-1.8c0.2-0.2,0.4-0.4,0.6-0.5l0.2,0
			c0.4,0,0.9,0,1.3,0l0.3,0c0.2,0.1,0.4,0.3,0.6,0.5c1,0.7,2,1.4,3.2,1.8c1.6,0.6,3.3,1,5.1,1l0.2,0c2.3,0,4.6-0.6,6.6-1.7
			c0.7-0.4,1.4-0.9,2.1-1.4c-0.2,1.2-0.2,2.2-0.3,3.2c0,1.4,0.1,2.5,0.2,3.3c-0.7,0.3-1.8,0.8-3,1.5c-3,1.8-5.5,4-7.5,6.7
			c-1.1,1.5-2.1,3-2.9,4.7c-0.6,1.3-1.2,2.8-1.6,4.2c-0.4,1.3-0.6,2.4-0.8,3.2c-0.8,0.1-1.9,0.3-3.2,0.6c-1.4,0.4-2.9,0.8-4.2,1.4
			c-1.7,0.7-3.3,1.6-4.8,2.6c-1.5,1-2.9,2.1-4.2,3.5c-1,1-2,2.2-2.9,3.4c-1.4,1.8-2.1,3.3-2.4,3.7l-0.7,1.3l1.4,0.5
			c0.1,0,1.9,0.7,4.7,0.7h0.1c1.6,0,3.2-0.2,4.8-0.6c2-0.5,3.9-1.4,5.7-2.6c1.8-1.2,3.3-2.6,4.6-4.3c1-1.3,1.8-2.7,2.5-4.3
			c0.6-1.4,0.9-2.6,1-3.4c0.8-0.1,2-0.4,3.4-0.9c1.5-0.6,3-1.3,4.3-2.3c1.7-1.2,3.2-2.6,4.4-4.3c1.3-1.6,2.2-3.5,2.9-5.4
			c0.5-1.5,0.9-3.1,1-4.8c0.1-1.5,0.1-2.7,0-3.5c0.7-0.3,1.8-0.9,3-1.8c2.1-1.5,4.9-4.1,6.8-8.5c1.9-4.3,1.8-8.2,1.5-10.8
			c-0.3-2-0.8-3.5-1.1-4.1c1.3-1.7,2.3-3.8,2.7-6c0.5-2.3,0.4-4.6-0.3-6.8C68.7,33.7,67.9,32.1,66.8,30.7z M46.1,89.4
			c-1,0.7-2.1,1.2-3.2,1.6c-0.7,0.3-1.4,0.5-2.1,0.6c0.1-0.7,0.3-1.4,0.5-2.1c0.3-1,0.7-2.1,1.1-3.1L46.1,89.4z M49.9,86.1
			c-0.6,0.7-1.3,1.4-2.1,2l-4.4-3.7c0.4-0.8,0.9-1.5,1.3-2.2L49.9,86.1z M52.6,81.9c-0.4,0.9-0.9,1.7-1.4,2.5l-5.1-3.9
			c0.6-0.7,1.2-1.3,1.8-1.9L52.6,81.9z M54,74.4c0,0.7,0,1.4-0.1,2.2c-0.1,1-0.3,2.1-0.7,3.3l-3.8-2.6c0.9-0.7,1.8-1.3,2.6-1.8
			C52.7,75.1,53.4,74.8,54,74.4z M60.7,67.1c-0.8,0.8-1.7,1.6-2.6,2.3c-0.7,0.5-1.4,0.9-1.8,1.1c0-0.6-0.1-1.3-0.1-2.2
			c0-1,0.1-2.1,0.3-3.2L60.7,67.1z M22.9,55.9l-4.1,7.6c-1.1-0.7-1.9-1.5-2.4-2.1l4.8-6.2C21.8,55.4,22.3,55.7,22.9,55.9z M12,43
			l-7.3,2.8c-0.4-0.6-0.9-1.6-1.3-2.9l8.5-1.7C12,41.8,12,42.4,12,43z M11.5,39.1L3,40.8c-0.2-1.3-0.1-2.4,0-3.2l7.9-0.3
			C11.2,38,11.4,38.6,11.5,39.1z M14.9,11.3c1.6-0.6,3-0.7,3.7-0.7l0.2,0c0.9,0,1.7,0.1,2.6,0.3c-0.3,0.9-0.6,1.8-1,2.7
			c-0.4,0.9-0.7,1.8-1.1,2.6L14.9,11.3z M30.6,3.8c0.7-0.3,1.7-0.6,3.1-0.7l0.1,8.6c-0.6,0-1.2-0.1-1.8-0.2L30.6,3.8z M27.4,10.3
			c-1.2-0.4-2.1-0.7-2.7-1c0.4-0.8,0.9-1.6,1.5-2.3c0.4-0.5,1.2-1.3,2.4-2.1l1,6.1C28.8,10.7,28,10.4,27.4,10.3z M39.9,11.1l1-6.5
			c1.4,0.8,2.4,1.8,2.9,2.4c0.6,0.7,1.1,1.5,1.5,2.3c-0.7,0.2-1.6,0.6-2.7,1C41.6,10.6,40.7,10.8,39.9,11.1z M50.6,15.7
			c-0.4-0.8-0.7-1.6-0.9-2.1c-0.4-1.1-0.7-2-1-2.7c0.8-0.2,1.7-0.3,2.6-0.3c0,0,0.1,0,0.1,0c0.6,0,1.7,0.1,3.1,0.5L50.6,15.7z
			 M58.6,38.7c0.2-0.6,0.4-1.2,0.6-1.8l7.6,0.1c0.2,1,0.3,2.1,0.2,3.2L58.6,38.7z M58,42.6c0-0.6,0.1-1.2,0.2-1.8l8.6,1.6
			c-0.3,1-0.7,2-1.2,3L58,42.6z M56.4,53.7c0.1,0.9,0,1.8-0.2,2.8c-0.1,0.4-0.3,1.1-0.6,1.9c0,0,0,0.1-0.1,0.1
			c-0.1,0.2-0.2,0.5-0.3,0.7l-3.7-4.7c0.7-0.1,1.4-0.3,2.1-0.4C54.7,53.9,55.7,53.8,56.4,53.7z M45.6,56.7l4.3,7.6c-1,0.5-2,0.8-3,1
			l-2.7-7.6C44.6,57.3,45.1,57,45.6,56.7z M25.9,65.5l2.1-6c0.6,0.5,1.2,1.1,1.9,1.8c0.8,0.8,1.5,1.6,1.9,2.1
			c-0.7,0.5-1.5,1-2.4,1.4C28.6,65,27.4,65.4,25.9,65.5z M28.9,56.6c-1.3-1.1-2.5-1.9-3.7-2.6c-1.3-0.7-2.6-1.2-4.3-1.7
			c-1.5-0.4-2.9-0.7-3.9-0.9c-1.2-0.2-2.1-0.4-2.8-0.5c0.1-0.7,0.2-1.6,0.4-2.9c0.1-1,0.3-2.5,0.3-4c0-1.7-0.1-3.1-0.4-4.6
			c-0.3-1.4-0.7-2.8-1.4-4.4c-0.6-1.4-1.3-2.7-1.8-3.6c-0.6-1.1-1.1-1.9-1.4-2.5c0.6-0.4,1.4-0.9,2.4-1.5c0.8-0.5,2.1-1.3,3.3-2.3
			c1.3-1,2.4-2.1,3.3-3.2c0.9-1.1,1.7-2.4,2.5-3.9c0.7-1.3,1.2-2.7,1.6-3.7c0.5-1.2,0.8-2.1,1-2.7c0.7,0.3,1.6,0.6,2.7,0.9
			c1,0.3,2.4,0.8,3.9,1.1c3.2,0.7,5.8,0.7,9.1,0c1.5-0.3,2.8-0.7,3.9-1.1c1.1-0.4,2-0.7,2.7-0.9c0.2,0.7,0.6,1.6,1,2.7
			c0.4,1,0.9,2.4,1.6,3.7c0.8,1.5,1.5,2.7,2.5,3.9c0.9,1.1,2,2.1,3.3,3.2c1.2,1,2.5,1.8,3.3,2.3c1,0.7,1.8,1.2,2.5,1.5
			c-0.4,0.6-0.9,1.5-1.5,2.5c-0.5,0.9-1.2,2.2-1.8,3.6c-0.7,1.6-1.1,2.9-1.4,4.4c-0.3,1.4-0.4,2.9-0.4,4.6c0,1.5,0.2,3,0.3,4
			c0.1,1.2,0.3,2.2,0.4,2.9c-0.7,0.1-1.6,0.2-2.8,0.5c-1.1,0.2-2.5,0.5-3.9,0.9c-1.6,0.5-3,1-4.3,1.7c-1.3,0.7-2.5,1.5-3.7,2.6
			c-1.2,1-2.2,2.1-2.9,2.8c-1.2,1.3-2,2.1-2.5,2.7c-0.5,0-1,0-1.5,0c-0.5-0.6-1.3-1.5-2.5-2.8C31,58.6,30,57.6,28.9,56.6z
			 M10.7,25.3c-1,0.6-1.9,1.2-2.5,1.5c-0.4-0.8-0.7-1.7-0.9-2.6c-0.2-1.1-0.2-2.2-0.1-3.3l5.4,3.1C12.1,24.4,11.5,24.8,10.7,25.3z
			 M8.8,32.9c0.5,0.8,0.9,1.6,1.3,2.4l-6.5,0.2c0.6-1.5,1.3-2.6,1.7-3.2c0.6-0.7,1.3-1.4,2-1.9C7.7,31.1,8.2,31.9,8.8,32.9z
			 M60.2,34.9c0.4-0.8,0.8-1.4,1.1-2c0.6-1,1.1-1.9,1.5-2.5c0.7,0.5,1.4,1.2,2,1.9c0.4,0.4,1,1.3,1.5,2.6L60.2,34.9z M62.6,24.2
			c-0.2,0.9-0.5,1.8-0.9,2.6c-0.6-0.3-1.5-0.9-2.5-1.5c-0.6-0.4-1.5-1-2.4-1.6l5.7-3.4C62.9,21.9,62.8,23.3,62.6,24.2z M40.2,61.3
			c0.5-0.6,1.3-1.4,2.2-2.2l2.3,6.4c-1.4,0-2.7-0.3-4-0.8c-0.9-0.3-1.7-0.8-2.4-1.4C38.8,62.8,39.4,62.1,40.2,61.3z M64.3,47.1
			c-0.9,1-1.9,1.9-3.1,2.6c-0.8,0.5-1.7,0.8-2.6,1c-0.1-0.7-0.3-1.7-0.4-2.8c-0.1-1.1-0.2-2.1-0.3-3L64.3,47.1z M63.2,52.1
			c0.5-0.5,1.1-1,1.6-1.5c0.2,0.7,0.3,1.4,0.4,2.1c0.2,1.1,0.2,2.3,0.1,3.4L61,54.5C61.8,53.6,62.5,52.8,63.2,52.1z M55.1,22.3
			c-0.5-0.4-0.9-0.8-1.3-1.3l6.7-5.6c0.6,0.9,1.2,1.8,1.5,2.8L55.1,22.3z M52.5,19.4c-0.3-0.5-0.6-1-1-1.6l5-5.8
			c0.7,0.4,1.6,1,2.5,1.9L52.5,19.4z M10.5,14.2c0.7-0.8,1.6-1.5,2.5-2l5.3,5.9c-0.3,0.5-0.6,1-1,1.5L10.5,14.2z M7.8,18.7
			C8,18,8.5,17,9.2,15.9l6.7,5.4c-0.4,0.4-0.8,0.8-1.3,1.3L7.8,18.7z M16.4,54.1c0.9,0.2,1.8,0.3,2.6,0.5l-3.9,5.1
			c-0.8-1.4-1.2-2.6-1.3-3.3c-0.2-0.9-0.3-1.9-0.2-2.8C14.3,53.8,15.3,53.9,16.4,54.1z M26.2,57.9l-2.5,7.5c-0.7-0.1-1.8-0.3-3-0.9
			l4.1-7.6C25.2,57.2,25.7,57.5,26.2,57.9z M49.3,55.1L54,61c-0.6,0.8-1.4,1.5-2.3,2.2l-4.2-7.5C48.1,55.5,48.6,55.3,49.3,55.1z
			 M63.5,63c-0.4,0.9-0.9,1.7-1.5,2.5L56.9,63c0.2-0.8,0.5-1.7,0.8-2.5L63.5,63z M65.1,58.3c-0.2,0.9-0.4,1.8-0.8,2.8l-5.9-2.5
			c0.4-0.8,0.8-1.6,1.3-2.3L65.1,58.3z M35.8,3c1.1,0.1,2.1,0.3,3.1,0.6l-1.2,7.9c-0.6,0.1-1.2,0.2-1.8,0.2L35.8,3z M12,45.3
			c-0.1,0.8-0.1,1.6-0.2,2.5c-0.1,1.1-0.3,2.1-0.4,2.8c-0.9-0.2-1.7-0.5-2.6-1c-0.6-0.3-1.6-1-2.7-2.1L12,45.3z M25.5,106.5
			c-1.3,0.3-2.5,0.5-3.6,0.4h0c-0.7,0-1.5-0.1-2.2-0.2c0.4-0.6,0.8-1.2,1.2-1.8c0.7-0.9,1.4-1.7,2.2-2.6L25.5,106.5z M30.2,104.6
			c-0.9,0.5-1.8,1-2.7,1.3l-2.9-5c0.7-0.6,1.3-1.1,2-1.6L30.2,104.6z M34,101.4c-0.7,0.7-1.4,1.4-2.2,2l-3.5-5.3
			c0.7-0.4,1.5-0.8,2.2-1.2L34,101.4z M37.6,94.8c-0.2,0.7-0.4,1.4-0.7,2.1c-0.4,1-0.9,1.9-1.6,2.9l-2.8-3.6c1-0.4,2-0.7,2.9-0.9
			C36.2,95,36.9,94.9,37.6,94.8z"/>
	</g>
</g>
</svg>
