<?xml version="1.0" encoding="utf-8"?>
<!-- Generator: Adobe Illustrator 22.1.0, SVG Export Plug-In . SVG Version: 6.00 Build 0)  -->
<svg version="1.1" id="圖層_1" xmlns="http://www.w3.org/2000/svg" xmlns:xlink="http://www.w3.org/1999/xlink" x="0px" y="0px"
	 viewBox="0 0 70 68" style="enable-background:new 0 0 70 68;" xml:space="preserve">
<style type="text/css">
	.st0{fill:#262118;}
	.st1{fill:#AA8846;}
</style>
<path class="st1" d="M69.3,35.5c-0.5-1.7-1.4-3.4-2.5-4.8c-0.8-1-1.7-1.8-2.7-2.5l0,0c0.5-1.1,0.9-2.2,1.2-3.5
	c0.3-1.8,0.3-3.6-0.1-5.4c-0.5-2.2-1.5-4.3-3-6.1c-1.5-1.8-3.4-3.2-5.4-4.1c-1.7-0.7-3.5-1.1-5.3-1.1c0,0,0,0,0,0
	c-1.3,0-2.5,0.1-3.6,0.5c0,0,0,0,0,0c-0.5-1.1-1.1-2.2-2-3.1c-1.1-1.4-2.6-2.5-4.2-3.3c-4-2.1-9.2-2.1-13.3,0
	c-1.6,0.8-3.1,2-4.2,3.3c-0.8,1-1.5,2-2,3.1l0,0c0,0,0,0,0,0C21.2,8,20,7.9,18.6,7.9c-1.8,0-3.6,0.4-5.3,1.1c-2.1,0.9-4,2.3-5.4,4.1
	c-1.5,1.8-2.5,3.9-3,6.1c-0.4,1.8-0.4,3.6-0.1,5.4c0.2,1.2,0.6,2.4,1.2,3.5l0,0l0,0c-1,0.7-1.9,1.5-2.7,2.5c-1.1,1.4-2,3-2.5,4.8
	c-0.6,2.2-0.7,4.5-0.3,6.8C1,44.6,2,46.7,3.4,48.5C4.6,49.9,6,51.1,7.6,52c1.1,0.6,2.3,1.1,3.4,1.3h0l0,0c-0.1,1.2,0,2.4,0.3,3.7
	c0.4,1.7,1.1,3.4,2.1,4.9c1.3,1.9,3,3.5,5.1,4.6c2,1.1,4.3,1.7,6.6,1.7c0,0,0.1,0,0.1,0c1.8,0,3.6-0.3,5.2-1
	c1.2-0.5,2.2-1.1,3.2-1.8c0.2-0.2,0.4-0.4,0.6-0.5l0.2,0c0.4,0,0.9,0,1.3,0l0.2,0c0.2,0.1,0.4,0.3,0.6,0.5c1,0.7,2,1.4,3.2,1.8
	c1.6,0.6,3.3,1,5.1,1l0.2,0c2.3,0,4.6-0.6,6.6-1.7c2-1.1,3.8-2.7,5.1-4.6c1-1.5,1.8-3.2,2.1-4.9c0.3-1.2,0.4-2.5,0.3-3.7l0,0
	c1.2-0.3,2.3-0.7,3.4-1.3c1.6-0.9,3-2.1,4.1-3.5c1.4-1.8,2.4-3.9,2.9-6.2C70.1,40,70,37.7,69.3,35.5z M66.8,42.3c-0.3,1-0.6,2-1.2,3
	l-7.6-2.7c0-0.6,0.1-1.2,0.2-1.8L66.8,42.3z M12.1,43l-7.3,2.8c-0.4-0.6-0.9-1.6-1.3-2.9l8.5-1.7C12.1,41.8,12.1,42.4,12.1,43z
	 M11.6,39.1l-8.5,1.7c-0.1-1.1-0.1-2.2,0-3.2l7.9-0.3C11.3,38,11.4,38.6,11.6,39.1z M15,11.3c1.6-0.6,3-0.7,3.7-0.7l0.2,0
	c0.9,0,1.7,0.1,2.6,0.3c-0.3,0.9-0.6,1.8-1,2.7c-0.2,0.6-0.6,1.6-1.1,2.6L15,11.3z M30.7,3.8c0.7-0.3,1.7-0.6,3.1-0.7l0.1,8.6
	c-0.6,0-1.2-0.1-1.8-0.2L30.7,3.8z M27.5,10.3c-1.2-0.4-2.1-0.7-2.7-1c0.4-0.8,0.9-1.6,1.5-2.3c0.4-0.5,1.2-1.3,2.4-2.1l1,6.1
	C28.9,10.7,28.1,10.4,27.5,10.3z M39.9,11.1l1-6.5c1.4,0.8,2.4,1.8,2.9,2.4c0.6,0.7,1.1,1.5,1.5,2.3c-0.7,0.3-1.6,0.6-2.7,1
	C41.7,10.6,40.8,10.8,39.9,11.1z M50.6,15.7c-0.4-0.8-0.7-1.5-0.9-2.1c-0.4-1.1-0.7-2-1-2.7c0.9-0.2,1.8-0.3,2.8-0.3
	c0.6,0,1.7,0.1,3.1,0.5L50.6,15.7z M40.3,61.3c0.5-0.6,1.3-1.4,2.2-2.2l2.3,6.4c-1.4,0-2.7-0.3-4-0.8c-0.9-0.4-1.7-0.8-2.4-1.4
	C38.8,62.8,39.5,62.1,40.3,61.3z M55.3,44.1c0,1.5,0.2,2.9,0.3,4c0.1,1.2,0.3,2.2,0.4,2.9c-0.7,0.1-1.7,0.3-2.8,0.5
	c-1,0.2-2.4,0.4-3.9,0.9c-1.6,0.5-3,1-4.3,1.7c-1.3,0.7-2.5,1.5-3.7,2.6c-1.2,1-2.2,2.1-2.9,2.8c-1.2,1.3-2,2.1-2.5,2.7
	c-0.5,0-1,0-1.5,0c-0.5-0.6-1.3-1.5-2.5-2.8c-0.7-0.7-1.7-1.8-2.9-2.8c-1.3-1.1-2.5-1.9-3.7-2.6c-1.3-0.7-2.6-1.2-4.3-1.7
	c-1.5-0.4-2.9-0.7-3.9-0.9c-1.2-0.2-2.2-0.4-2.8-0.5c0.1-0.7,0.2-1.6,0.4-2.9c0.1-1,0.3-2.5,0.3-4c0-1.7-0.1-3.1-0.4-4.6
	c-0.3-1.4-0.7-2.8-1.4-4.4c-0.6-1.4-1.3-2.7-1.8-3.6c-0.6-1.1-1.1-1.9-1.5-2.5c0.6-0.4,1.4-0.9,2.4-1.5c0.8-0.5,2.1-1.3,3.3-2.3
	c1.3-1,2.4-2.1,3.3-3.2c0.9-1.1,1.7-2.4,2.5-3.9c0.7-1.4,1.2-2.7,1.6-3.7c0.4-1.1,0.8-2,1-2.7c0.7,0.3,1.6,0.6,2.7,0.9
	c1.1,0.4,2.4,0.8,3.9,1.1c3.2,0.7,5.8,0.7,9.1,0c1.5-0.3,2.8-0.8,3.9-1.1c1.1-0.4,2-0.7,2.7-0.9c0.2,0.7,0.6,1.6,1,2.7
	c0.4,1,0.9,2.3,1.6,3.7c0.8,1.5,1.5,2.7,2.5,3.9c0.9,1.1,2,2.1,3.3,3.2c1.2,1,2.5,1.8,3.3,2.3c1,0.7,1.8,1.2,2.4,1.5
	c-0.4,0.6-0.8,1.4-1.4,2.5c-0.5,0.9-1.2,2.2-1.8,3.6c-0.7,1.5-1.1,2.9-1.4,4.4C55.4,41,55.3,42.4,55.3,44.1z M25.9,65.5l2.1-6
	c0.6,0.6,1.2,1.2,1.9,1.8c0.8,0.8,1.5,1.6,1.9,2.1c-0.7,0.5-1.5,1-2.4,1.4C28.6,65,27.4,65.4,25.9,65.5z M10.8,25.3
	c-1,0.6-1.8,1.1-2.5,1.5c-0.4-0.8-0.7-1.7-0.9-2.6c-0.1-0.6-0.3-1.8-0.1-3.3l5.4,3.1C12.2,24.4,11.5,24.9,10.8,25.3z M8.9,32.9
	c0.5,0.9,0.9,1.6,1.3,2.4l-6.5,0.2C4.3,34,5,32.9,5.4,32.4c0.6-0.7,1.3-1.4,2-1.9C7.8,31,8.3,31.9,8.9,32.9z M60.2,34.9
	c0.3-0.6,0.7-1.3,1.1-2c0.6-1,1.1-1.9,1.5-2.5c0.7,0.5,1.4,1.2,2,1.9c0.4,0.4,1,1.3,1.5,2.6L60.2,34.9z M62.7,24.2
	c-0.2,0.9-0.4,1.8-0.9,2.6c-0.6-0.4-1.5-0.9-2.5-1.5c-0.6-0.4-1.5-1-2.4-1.6l5.7-3.4C63,21.9,62.9,23.3,62.7,24.2z M55.2,22.3
	c-0.5-0.4-0.9-0.8-1.3-1.3l6.7-5.6c0.6,0.9,1.2,1.8,1.5,2.8L55.2,22.3z M52.6,19.4c-0.3-0.5-0.6-1-1-1.6l5-5.8
	c0.7,0.4,1.6,1,2.5,1.9L52.6,19.4z M10.6,14.2c0.7-0.8,1.6-1.5,2.5-2l5.3,5.9c-0.3,0.5-0.6,1-1,1.5L10.6,14.2z M7.9,18.7
	C8.1,18,8.5,17,9.3,15.9l6.7,5.4c-0.4,0.4-0.8,0.8-1.4,1.3L7.9,18.7z M16.5,54.1c0.9,0.2,1.8,0.3,2.6,0.5l-3.9,5.1
	c-0.8-1.4-1.2-2.6-1.3-3.3c-0.2-0.9-0.3-1.9-0.2-2.8C14.4,53.8,15.4,53.9,16.5,54.1z M23,55.9l-4.1,7.6c-1.1-0.7-1.9-1.5-2.4-2.1
	l4.8-6.2C21.9,55.4,22.4,55.7,23,55.9z M26.3,57.9l-2.5,7.4c-0.7-0.1-1.8-0.3-3-0.9l4.1-7.6C25.3,57.2,25.8,57.5,26.3,57.9z
	 M45.7,56.7l4.3,7.6c-1,0.5-2,0.8-3,1l-2.7-7.6C44.7,57.3,45.2,57,45.7,56.7z M49.4,55.1l4.7,5.9c-0.6,0.8-1.4,1.5-2.3,2.2l-4.2-7.5
	C48.1,55.5,48.7,55.3,49.4,55.1z M56.5,53.7c0.1,0.9,0,1.8-0.2,2.8c-0.1,0.5-0.4,1.6-1,2.8l-3.7-4.7c0.7-0.1,1.3-0.3,2.1-0.4
	C54.8,53.9,55.8,53.8,56.5,53.7z M67.1,40.3l-8.4-1.5c0.2-0.6,0.4-1.2,0.6-1.8l7.6,0.1C67.1,38.1,67.2,39.2,67.1,40.3z M35.9,3
	C36.9,3.1,38,3.3,39,3.6l-1.2,7.9c-0.6,0.1-1.2,0.2-1.8,0.2L35.9,3z M12.1,45.3c-0.1,1-0.2,1.9-0.2,2.5c-0.1,1.2-0.3,2.1-0.4,2.8
	c-0.9-0.2-1.7-0.5-2.6-1c-0.6-0.3-1.6-1-2.7-2.1L12.1,45.3z M64.4,47.1c-1.1,1.3-2.3,2.1-3.1,2.6c-0.8,0.5-1.7,0.8-2.6,1
	c-0.2-1-0.3-1.9-0.4-2.8c-0.1-1.1-0.2-2.1-0.3-3L64.4,47.1z"/>
</svg>
